<?xml version="1.0" encoding="UTF-8" standalone="no"?>
<!-- Created with Inkscape (http://www.inkscape.org/) -->

<svg
   width="1024"
   height="1024"
   viewBox="0 0 270.93333 270.93334"
   version="1.1"
   id="svg5"
   inkscape:version="1.3 (0e150ed6c4, 2023-07-21)"
   sodipodi:docname="icon_ok.svg"
   xmlns:inkscape="http://www.inkscape.org/namespaces/inkscape"
   xmlns:sodipodi="http://sodipodi.sourceforge.net/DTD/sodipodi-0.dtd"
   xmlns="http://www.w3.org/2000/svg"
   xmlns:svg="http://www.w3.org/2000/svg">
  <sodipodi:namedview
     id="namedview7"
     pagecolor="#505050"
     bordercolor="#eeeeee"
     borderopacity="1"
     inkscape:showpageshadow="0"
     inkscape:pageopacity="0"
     inkscape:pagecheckerboard="true"
     inkscape:deskcolor="#505050"
     inkscape:document-units="mm"
     showgrid="false"
     inkscape:zoom="0.70710678"
     inkscape:cx="553.66461"
     inkscape:cy="533.86562"
     inkscape:window-width="1920"
     inkscape:window-height="1017"
     inkscape:window-x="-8"
     inkscape:window-y="-8"
     inkscape:window-maximized="1"
     inkscape:current-layer="layer1"
     showguides="true" />
  <defs
     id="defs2">
    <inkscape:path-effect
       effect="mirror_symmetry"
       start_point="33.842743,33.931452"
       end_point="33.842743,40.939516"
       center_point="33.842743,37.435484"
       id="path-effect13841"
       is_visible="true"
       lpeversion="1.2"
       lpesatellites=""
       mode="free"
       discard_orig_path="false"
       fuse_paths="false"
       oposite_fuse="false"
       split_items="false"
       split_open="false"
       link_styles="false" />
  </defs>
  <g
     inkscape:label="Calque 1"
     inkscape:groupmode="layer"
     id="layer1">
    <path
       id="path1"
       style="stroke-width:29.1878;stroke-linecap:round;stroke-linejoin:round"
       d="M 135.46667 3.1951538 A 132.27168 132.27168 0 0 0 3.1951538 135.46667 A 132.27168 132.27168 0 0 0 135.46667 267.73818 A 132.27168 132.27168 0 0 0 267.73818 135.46667 A 132.27168 132.27168 0 0 0 135.46667 3.1951538 z M 199.26587 63.164103 A 19.638 19.638 0 0 1 208.75212 66.818144 A 19.638 19.638 0 0 1 213.06658 94.252128 L 128.87689 209.87298 A 19.639964 19.639964 0 0 1 101.13285 213.95903 L 57.728259 181.03133 A 19.638 19.638 0 0 1 53.951229 153.51776 A 19.638 19.638 0 0 1 81.466862 149.74021 L 108.91583 170.56427 L 181.31658 71.132609 A 19.638 19.638 0 0 1 199.26587 63.164103 z " />
  </g>
</svg>
