<?xml version="1.0" encoding="UTF-8" standalone="no"?>
<!-- Created with Inkscape (http://www.inkscape.org/) -->

<svg
   width="256"
   height="256"
   viewBox="0 0 67.733332 67.733334"
   version="1.1"
   id="svg5"
   inkscape:version="1.2.2 (732a01da63, 2022-12-09)"
   sodipodi:docname="icon_controller.svg"
   xmlns:inkscape="http://www.inkscape.org/namespaces/inkscape"
   xmlns:sodipodi="http://sodipodi.sourceforge.net/DTD/sodipodi-0.dtd"
   xmlns="http://www.w3.org/2000/svg"
   xmlns:svg="http://www.w3.org/2000/svg">
  <sodipodi:namedview
     id="namedview7"
     pagecolor="#505050"
     bordercolor="#eeeeee"
     borderopacity="1"
     inkscape:showpageshadow="0"
     inkscape:pageopacity="0"
     inkscape:pagecheckerboard="true"
     inkscape:deskcolor="#505050"
     inkscape:document-units="mm"
     showgrid="false"
     inkscape:zoom="2"
     inkscape:cx="131.75"
     inkscape:cy="136.5"
     inkscape:window-width="2560"
     inkscape:window-height="1377"
     inkscape:window-x="-8"
     inkscape:window-y="-8"
     inkscape:window-maximized="1"
     inkscape:current-layer="layer1"
     showguides="true" />
  <defs
     id="defs2">
    <inkscape:path-effect
       effect="mirror_symmetry"
       start_point="33.842743,33.931452"
       end_point="33.842743,40.939516"
       center_point="33.842743,37.435484"
       id="path-effect13841"
       is_visible="true"
       lpeversion="1.2"
       lpesatellites=""
       mode="free"
       discard_orig_path="false"
       fuse_paths="false"
       oposite_fuse="false"
       split_items="false"
       split_open="false"
       link_styles="false" />
  </defs>
  <g
     inkscape:label="Calque 1"
     inkscape:groupmode="layer"
     id="layer1">
    <g
       id="g14622"
       transform="matrix(1.0727456,0,0,1.0727456,10.716424,-15.82511)">
      <path
         id="path14615"
         style="fill:#000000;fill-opacity:1;stroke:none;stroke-width:0.2;stroke-opacity:1"
         d="m 33.866667,17.499707 a 16.366936,16.366936 0 0 0 -16.36696,16.36696 16.366936,16.366936 0 0 0 16.36696,16.366959 16.366936,16.366936 0 0 0 16.366959,-16.366959 16.366936,16.366936 0 0 0 -16.366959,-16.36696 z m 0,4.124813 A 12.241936,12.241936 0 0 1 46.108813,33.866667 12.241936,12.241936 0 0 1 33.866667,46.108813 12.241936,12.241936 0 0 1 21.62452,33.866667 12.241936,12.241936 0 0 1 33.866667,21.62452 Z m 0,7.628992 a 4.6129031,4.6129031 0 0 0 -4.613155,4.613155 4.6129031,4.6129031 0 0 0 4.613155,4.613155 4.6129031,4.6129031 0 0 0 4.613155,-4.613155 4.6129031,4.6129031 0 0 0 -4.613155,-4.613155 z" />
      <g
         id="path13084">
        <path
           style="color:#000000;fill:#000000;stroke-width:3.1;-inkscape-stroke:none"
           d="m 33.842743,33.931452 -12.375001,7.008064 m 12.375001,-7.008064 12.375001,7.008064"
           id="path14612" />
        <path
           style="color:#000000;fill:#000000;-inkscape-stroke:none"
           d="m 33.078125,32.582031 -12.375,7.007813 1.529297,2.699218 11.611328,-6.576171 11.609375,6.576171 1.529297,-2.699218 -12.375,-7.007813 -0.763672,1.347656 z"
           id="path14609" />
      </g>
    </g>
    <path
       id="path15400"
       style="fill:#000000;fill-opacity:1;stroke:none;stroke-width:0.1;stroke-dasharray:none;stroke-opacity:1"
       class="UnoptimicedTransforms"
       d="M 10.822595,26.257829 5.6771729,48.169153 23.729818,35.938375 41.782463,48.169153 36.63704,26.257829 h -3.10472 l -1.685685,2.661336 H 15.613 l -1.685685,-2.661336 z"
       transform="matrix(0.96276756,0,0,0.96276756,-2.809279,14.575183)" />
  </g>
</svg>
