<?xml version="1.0" encoding="UTF-8" standalone="no"?>
<!-- Created with Inkscape (http://www.inkscape.org/) -->

<svg
   width="1024"
   height="1024"
   viewBox="0 0 270.93333 270.93334"
   version="1.1"
   id="svg5"
   inkscape:version="1.3 (0e150ed6c4, 2023-07-21)"
   sodipodi:docname="icon_cancel.svg"
   xmlns:inkscape="http://www.inkscape.org/namespaces/inkscape"
   xmlns:sodipodi="http://sodipodi.sourceforge.net/DTD/sodipodi-0.dtd"
   xmlns="http://www.w3.org/2000/svg"
   xmlns:svg="http://www.w3.org/2000/svg">
  <sodipodi:namedview
     id="namedview7"
     pagecolor="#505050"
     bordercolor="#eeeeee"
     borderopacity="1"
     inkscape:showpageshadow="0"
     inkscape:pageopacity="0"
     inkscape:pagecheckerboard="true"
     inkscape:deskcolor="#505050"
     inkscape:document-units="mm"
     showgrid="false"
     inkscape:zoom="0.70710678"
     inkscape:cx="554.37172"
     inkscape:cy="535.27983"
     inkscape:window-width="1920"
     inkscape:window-height="1017"
     inkscape:window-x="-8"
     inkscape:window-y="-8"
     inkscape:window-maximized="1"
     inkscape:current-layer="layer1"
     showguides="true" />
  <defs
     id="defs2">
    <inkscape:path-effect
       effect="mirror_symmetry"
       start_point="33.842743,33.931452"
       end_point="33.842743,40.939516"
       center_point="33.842743,37.435484"
       id="path-effect13841"
       is_visible="true"
       lpeversion="1.2"
       lpesatellites=""
       mode="free"
       discard_orig_path="false"
       fuse_paths="false"
       oposite_fuse="false"
       split_items="false"
       split_open="false"
       link_styles="false" />
  </defs>
  <g
     inkscape:label="Calque 1"
     inkscape:groupmode="layer"
     id="layer1">
    <path
       id="path1"
       style="display:inline;fill-opacity:1;stroke:none;stroke-width:53.112;stroke-linecap:round;stroke-linejoin:round"
       d="M 135.46667 1.8851562 A 133.58131 133.58131 0 0 0 1.8851562 135.46667 A 133.58131 133.58131 0 0 0 135.46667 269.04818 A 133.58131 133.58131 0 0 0 269.04818 135.46667 A 133.58131 133.58131 0 0 0 135.46667 1.8851562 z M 91.127771 64.813615 C 96.985947 64.813615 102.84415 67.0577 107.33298 71.546537 L 199.3868 163.60035 C 208.36447 172.57802 208.36447 187.0331 199.3868 196.01077 L 196.01077 199.3868 C 187.0331 208.36447 172.57802 208.36447 163.60035 199.3868 L 71.546537 107.33298 C 62.568862 98.355308 62.568862 83.900234 71.546537 74.922559 L 74.922559 71.546537 C 79.411396 67.0577 85.269595 64.813615 91.127771 64.813615 z " />
  </g>
</svg>
