<?xml version="1.0" encoding="UTF-8" standalone="no"?>
<!-- Created with Inkscape (http://www.inkscape.org/) -->

<svg
   width="1024"
   height="1024"
   viewBox="0 0 270.93333 270.93334"
   version="1.1"
   id="svg5"
   inkscape:version="1.2.2 (732a01da63, 2022-12-09)"
   sodipodi:docname="icon_help.svg"
   xmlns:inkscape="http://www.inkscape.org/namespaces/inkscape"
   xmlns:sodipodi="http://sodipodi.sourceforge.net/DTD/sodipodi-0.dtd"
   xmlns="http://www.w3.org/2000/svg"
   xmlns:svg="http://www.w3.org/2000/svg">
  <sodipodi:namedview
     id="namedview7"
     pagecolor="#505050"
     bordercolor="#eeeeee"
     borderopacity="1"
     inkscape:showpageshadow="0"
     inkscape:pageopacity="0"
     inkscape:pagecheckerboard="true"
     inkscape:deskcolor="#505050"
     inkscape:document-units="mm"
     showgrid="false"
     inkscape:zoom="0.70710678"
     inkscape:cx="404.46508"
     inkscape:cy="610.94026"
     inkscape:window-width="2560"
     inkscape:window-height="1377"
     inkscape:window-x="-8"
     inkscape:window-y="-8"
     inkscape:window-maximized="1"
     inkscape:current-layer="text1048"
     showguides="true" />
  <defs
     id="defs2">
    <rect
       x="285.67114"
       y="342.23968"
       width="237.58788"
       height="244.65895"
       id="rect1050" />
    <inkscape:path-effect
       effect="mirror_symmetry"
       start_point="33.842743,33.931452"
       end_point="33.842743,40.939516"
       center_point="33.842743,37.435484"
       id="path-effect13841"
       is_visible="true"
       lpeversion="1.2"
       lpesatellites=""
       mode="free"
       discard_orig_path="false"
       fuse_paths="false"
       oposite_fuse="false"
       split_items="false"
       split_open="false"
       link_styles="false" />
  </defs>
  <g
     inkscape:label="Calque 1"
     inkscape:groupmode="layer"
     id="layer1">
    <g
       aria-label="?"
       transform="matrix(12.725186,0,0,12.725186,-3573.0636,-4347.6797)"
       id="text1048"
       style="font-weight:bold;font-size:18.6667px;font-family:Arial;-inkscape-font-specification:'Arial, Bold';white-space:pre;stroke-width:0.78714;stroke-opacity:0.855978">
      <path
         d="m 292.51694,355.60903 h -2.32422 q -0.009,-0.5013 -0.009,-0.61068 0,-1.13021 0.3737,-1.85938 0.3737,-0.72917 1.49479,-1.64063 1.1211,-0.91146 1.33985,-1.19401 0.33724,-0.44661 0.33724,-0.98438 0,-0.74739 -0.60156,-1.27604 -0.59245,-0.53776 -1.60417,-0.53776 -0.97526,0 -1.63152,0.55599 -0.65625,0.55599 -0.90234,1.69532 l -2.35157,-0.29167 q 0.10026,-1.63152 1.38542,-2.77084 1.29427,-1.13933 3.39063,-1.13933 2.20574,0 3.50912,1.15756 1.30339,1.14844 1.30339,2.67969 0,0.84766 -0.48307,1.60417 -0.47396,0.75651 -2.04167,2.0599 -0.8112,0.67448 -1.01172,1.08464 -0.19141,0.41015 -0.17318,1.46745 z m -2.32422,3.44532 v -2.56121 h 2.5612 v 2.56121 z"
         id="path1841" />
    </g>
    <circle
       style="fill:none;stroke:#000000;stroke-width:21.77100048;stroke-dasharray:none;stroke-opacity:1"
       id="path287"
       cx="135.46666"
       cy="135.46666"
       r="121.07545" />
  </g>
</svg>
