<?xml version="1.0" encoding="UTF-8" standalone="no"?>
<!-- Created with Inkscape (http://www.inkscape.org/) -->

<svg
   width="256"
   height="256"
   viewBox="0 0 67.733332 67.733334"
   version="1.1"
   id="svg5"
   inkscape:version="1.2.2 (732a01da63, 2022-12-09)"
   sodipodi:docname="keyboard_icon.svg"
   xmlns:inkscape="http://www.inkscape.org/namespaces/inkscape"
   xmlns:sodipodi="http://sodipodi.sourceforge.net/DTD/sodipodi-0.dtd"
   xmlns="http://www.w3.org/2000/svg"
   xmlns:svg="http://www.w3.org/2000/svg">
  <sodipodi:namedview
     id="namedview7"
     pagecolor="#505050"
     bordercolor="#eeeeee"
     borderopacity="1"
     inkscape:showpageshadow="0"
     inkscape:pageopacity="0"
     inkscape:pagecheckerboard="true"
     inkscape:deskcolor="#505050"
     inkscape:document-units="mm"
     showgrid="false"
     inkscape:zoom="4"
     inkscape:cx="120.875"
     inkscape:cy="151"
     inkscape:window-width="1920"
     inkscape:window-height="1017"
     inkscape:window-x="1912"
     inkscape:window-y="-8"
     inkscape:window-maximized="1"
     inkscape:current-layer="layer1"
     showguides="true" />
  <defs
     id="defs2">
    <inkscape:path-effect
       effect="tiling"
       id="path-effect1509"
       is_visible="true"
       lpeversion="1"
       unit="px"
       seed="1;1"
       lpesatellites=""
       num_rows="4"
       num_cols="9"
       gapx="36"
       gapy="21"
       offset="0"
       offset_type="false"
       scale="0"
       rotate="0"
       mirrorrowsx="false"
       mirrorrowsy="false"
       mirrorcolsx="false"
       mirrorcolsy="false"
       mirrortrans="false"
       shrink_interp="false"
       split_items="false"
       link_styles="false"
       interpolate_scalex="false"
       interpolate_scaley="true"
       interpolate_rotatex="false"
       interpolate_rotatey="true"
       random_scale="false"
       random_rotate="false"
       random_gap_y="false"
       random_gap_x="false"
       transformorigin="" />
    <inkscape:path-effect
       effect="offset"
       id="path-effect1506"
       is_visible="true"
       lpeversion="1.2"
       linejoin_type="miter"
       unit="mm"
       offset="-3.6"
       miter_limit="4"
       attempt_force_join="false"
       update_on_knot_move="true" />
    <inkscape:path-effect
       effect="offset"
       id="path-effect1500"
       is_visible="true"
       lpeversion="1.2"
       linejoin_type="miter"
       unit="px"
       offset="-8"
       miter_limit="4"
       attempt_force_join="false"
       update_on_knot_move="true" />
    <inkscape:path-effect
       effect="tiling"
       id="path-effect1486"
       is_visible="true"
       lpeversion="1"
       unit="px"
       seed="1;1"
       lpesatellites=""
       num_rows="3"
       num_cols="3"
       gapx="8"
       gapy="0"
       offset="0"
       offset_type="false"
       scale="0"
       rotate="0"
       mirrorrowsx="false"
       mirrorrowsy="false"
       mirrorcolsx="false"
       mirrorcolsy="false"
       mirrortrans="false"
       shrink_interp="false"
       split_items="false"
       link_styles="false"
       interpolate_scalex="false"
       interpolate_scaley="true"
       interpolate_rotatex="false"
       interpolate_rotatey="true"
       random_scale="false"
       random_rotate="false"
       random_gap_y="false"
       random_gap_x="false"
       transformorigin="" />
    <inkscape:path-effect
       effect="mirror_symmetry"
       start_point="33.842743,33.931452"
       end_point="33.842743,40.939516"
       center_point="33.842743,37.435484"
       id="path-effect13841"
       is_visible="true"
       lpeversion="1.2"
       lpesatellites=""
       mode="free"
       discard_orig_path="false"
       fuse_paths="false"
       oposite_fuse="false"
       split_items="false"
       split_open="false"
       link_styles="false" />
  </defs>
  <g
     inkscape:label="Calque 1"
     inkscape:groupmode="layer"
     id="layer1">
    <path
       id="rect1502"
       style="fill:#000000;fill-opacity:1;stroke-width:0.114876"
       d="M 2.4473958,18.157031 V 49.576302 H 65.285937 V 18.157031 Z m 4.3713094,3.289722 H 12.110372 V 26.73842 H 6.8187052 Z m 12.2008058,0 h 5.291667 v 5.291667 h -5.291667 z m 6.10092,0 h 5.291666 v 5.291667 h -5.291666 z m 6.100402,0 H 36.5125 v 5.291667 h -5.291667 z m 6.100403,0 h 5.291667 v 5.291667 h -5.291667 z m 12.201323,0 h 5.291666 v 5.291667 h -5.291666 z m 6.100402,0 h 5.291667 V 26.73842 H 55.622961 Z M 6.8187052,27.962634 h 5.2916668 v 5.291667 H 6.8187052 Z m 6.1004028,0 h 5.291667 v 5.291667 h -5.291667 z m 6.100403,0 h 5.291667 v 5.291667 h -5.291667 z m 6.10092,0 h 5.291666 v 5.291667 h -5.291666 z m 6.100402,0 H 36.5125 v 5.291667 h -5.291667 z m 6.100403,0 h 5.291667 v 5.291667 h -5.291667 z m 6.10092,0 h 5.291666 v 5.291667 h -5.291666 z m 6.100403,0 h 5.291666 v 5.291667 h -5.291666 z m 6.100402,0 h 5.291667 v 5.291667 H 55.622961 Z M 6.8187052,34.479032 h 5.2916668 v 5.291667 H 6.8187052 Z m 6.1004028,0 h 5.291667 v 5.291667 h -5.291667 z m 6.100403,0 h 5.291667 v 5.291667 h -5.291667 z m 6.10092,0 h 5.291666 v 5.291667 h -5.291666 z m 6.100402,0 H 36.5125 v 5.291667 h -5.291667 z m 6.100403,0 h 5.291667 v 5.291667 h -5.291667 z m 6.10092,0 h 5.291666 v 5.291667 h -5.291666 z m 6.100403,0 h 5.291666 v 5.291667 h -5.291666 z m 6.100402,0 h 5.291667 v 5.291667 H 55.622961 Z M 6.8187052,40.994913 H 12.110372 V 46.28658 H 6.8187052 Z m 6.1004028,0 h 5.291667 v 5.291667 h -5.291667 z m 6.100403,0 h 5.291667 v 5.291667 h -5.291667 z m 6.10092,0 h 5.291666 v 5.291667 h -5.291666 z m 6.100402,0 H 36.5125 v 5.291667 h -5.291667 z m 6.100403,0 h 5.291667 v 5.291667 h -5.291667 z m 6.10092,0 h 5.291666 v 5.291667 h -5.291666 z m 6.100403,0 h 5.291666 v 5.291667 h -5.291666 z m 6.100402,0 h 5.291667 v 5.291667 h -5.291667 z" />
  </g>
  <g
     inkscape:groupmode="layer"
     id="layer2"
     inkscape:label="Calque 2" />
</svg>
