<?xml version="1.0" encoding="UTF-8" standalone="no"?>
<svg
   width="48"
   height="48"
   viewBox="0 0 48 48"
   version="1.1"
   id="svg2"
   sodipodi:docname="icon_ubinope.svg"
   inkscape:version="1.3 (0e150ed6c4, 2023-07-21)"
   xml:space="preserve"
   inkscape:export-filename="icon_ubinope.png"
   inkscape:export-xdpi="1025.9664"
   inkscape:export-ydpi="1025.9664"
   xmlns:inkscape="http://www.inkscape.org/namespaces/inkscape"
   xmlns:sodipodi="http://sodipodi.sourceforge.net/DTD/sodipodi-0.dtd"
   xmlns="http://www.w3.org/2000/svg"
   xmlns:svg="http://www.w3.org/2000/svg"><defs
     id="defs2" /><sodipodi:namedview
     id="namedview2"
     pagecolor="#505050"
     bordercolor="#ffffff"
     borderopacity="1"
     inkscape:showpageshadow="0"
     inkscape:pageopacity="0"
     inkscape:pagecheckerboard="1"
     inkscape:deskcolor="#505050"
     inkscape:zoom="11.282986"
     inkscape:cx="20.916448"
     inkscape:cy="24.77181"
     inkscape:window-width="1920"
     inkscape:window-height="1017"
     inkscape:window-x="-8"
     inkscape:window-y="-8"
     inkscape:window-maximized="1"
     inkscape:current-layer="layer2"
     inkscape:export-bgcolor="#ffffff00" /><g
     inkscape:groupmode="layer"
     id="layer2"
     inkscape:label="Logo"><path
       id="path1-9"
       style="display:inline;stroke-width:0.0708482;fill:#ffffff;fill-opacity:1"
       d="M 22.578125 0.40234375 C 15.456149 0.40234375 10.307365 3.4851389 6.890625 6.6523438 L 9.7128906 9.4746094 C 13.027501 6.2863362 17.57193 4.3808594 22.705078 4.3808594 C 34.152096 4.3808594 43.035156 13.606279 43.035156 24.330078 C 43.035156 29.747065 41.089123 34.374381 37.978516 37.738281 L 40.664062 40.425781 C 44.46707 36.384607 46.814453 30.957641 46.814453 24.974609 C 46.814453 8.6499046 34.155998 0.40234375 22.578125 0.40234375 z M 19.490234 8.8144531 C 16.282492 8.8144531 13.377433 9.6764685 11.039062 10.798828 L 14.003906 13.765625 C 15.637536 13.105222 17.420421 12.738281 19.289062 12.738281 C 25.210556 12.738281 30.992509 16.656275 32.435547 22.216797 L 31.910156 22.416016 C 29.319167 18.994471 25.07405 16.158203 20.060547 16.158203 C 18.896109 16.158203 17.801792 16.291582 16.779297 16.539062 L 22.693359 22.453125 C 22.86403 22.435963 23.033993 22.427734 23.203125 22.427734 C 26.006588 22.427734 28.248047 24.69908 28.248047 27.396484 C 28.248047 27.59597 28.225925 27.780178 28.205078 27.964844 L 33.875 33.634766 C 35.542053 31.223442 36.480469 28.191724 36.480469 24.964844 C 36.480469 16.229541 28.769437 8.8144531 19.490234 8.8144531 z M 3.0996094 11.007812 C 2.1001983 12.439267 1.6015625 13.443359 1.6015625 13.443359 L 3.4648438 14.775391 C 3.4648438 14.775391 1.1207208 19.231333 1.1855469 24.945312 C 1.1855469 36.609763 10.472021 47.597656 24.140625 47.597656 C 28.555482 47.597656 32.694336 46.316675 36.199219 44.107422 L 33.412109 41.320312 C 30.748235 42.792249 27.707931 43.603516 24.521484 43.603516 C 17.188836 43.603516 10.574219 38.019353 10.574219 30.363281 C 10.574219 26.685919 12.199568 23.937169 14.261719 22.169922 L 11.423828 19.332031 C 7.9316567 22.41167 6.2637477 27.236961 6.7011719 31.542969 L 6.1582031 31.742188 C 6.1582031 31.742188 5.1386719 29.494143 5.1386719 26.828125 C 5.1386719 23.045096 6.6670332 19.590506 9.1386719 17.046875 L 3.0996094 11.007812 z M 14.982422 22.890625 C 14.139636 24.265978 13.167969 26.507702 13.167969 28.744141 C 13.167969 34.767798 17.892216 38.939453 23.84375 38.939453 C 25.985122 38.939453 27.924054 38.423202 29.605469 37.513672 L 26.207031 34.115234 C 25.454859 34.497113 24.521074 34.78125 23.394531 34.78125 C 20.107812 34.78125 17.201172 32.129919 17.201172 28.5625 C 17.201172 27.530297 17.455431 26.597872 17.876953 25.785156 L 14.982422 22.890625 z " /><path
       id="rect2"
       style="fill:#ff1f1f;fill-opacity:1;stroke-width:10.7906"
       d="M 0.092,0 48,47.908203 V 39.759766 L 8.238,0 Z"
       sodipodi:nodetypes="ccccc" /></g><g
     inkscape:groupmode="layer"
     id="layer1"
     inkscape:label="Crossed" /></svg>
